<?xml version="1.0" encoding="utf-8"?>
<!-- Generator: Adobe Illustrator 18.1.0, SVG Export Plug-In . SVG Version: 6.00 Build 0)  -->
<svg version="1.1" id="Layer_1" xmlns="http://www.w3.org/2000/svg" xmlns:xlink="http://www.w3.org/1999/xlink" x="0px" y="0px"
	 viewBox="0 0 57.7 58.4" enable-background="new 0 0 57.7 58.4" xml:space="preserve">
<g>
	<path fill="#3F3C3A" d="M35.5,43.2H22.2c-1.1,2.7-2.7,4.6-5.2,6.5c-0.2,1.7-0.8,2.4-2,3.4v5.3h27.7v-5.3c-1.2-1-1.8-1.7-2-3.4
		C38.2,47.8,36.6,45.8,35.5,43.2z"/>
	<path fill="#3F3C3A" d="M10.8,30.8l-2.4,3.8l5.2,3.3l5.1-8.1c2.2,3.6,4.3,5.8,5,6.5h0v2.2h10.1v-2.2h-0.1c0.7-0.7,2.7-2.8,5-6.5
		l5.1,8.1l5.2-3.3l-2.4-3.8C55.7,25.1,59,17.1,57.1,5.7l-0.4-2.6h-9.8C46.9,2.1,47,1.1,47,0H10.6c0,1.1,0.1,2.1,0.2,3.1H0.9L0.5,5.7
		C-1.4,17.1,1.9,25.1,10.8,30.8z M46.2,9.4h5.2C52.1,17.7,48.9,22.9,41,27l-0.8,0.4C42.6,23,44.9,17.1,46.2,9.4z M6.3,9.4h5.2
		c1.2,7.7,3.6,13.7,5.9,18L16.6,27C8.7,22.9,5.6,17.7,6.3,9.4z"/>
</g>
</svg>
