<?xml version="1.0" encoding="utf-8"?>
<!-- Generator: Adobe Illustrator 18.1.0, SVG Export Plug-In . SVG Version: 6.00 Build 0)  -->
<svg version="1.1" id="Layer_1" xmlns="http://www.w3.org/2000/svg" xmlns:xlink="http://www.w3.org/1999/xlink" x="0px" y="0px"
	 viewBox="0 0 512 512" enable-background="new 0 0 512 512" xml:space="preserve">
<g>
	<defs>
		<rect id="SVGID_1_" width="512" height="512"/>
	</defs>
	<clipPath id="SVGID_2_">
		<use xlink:href="#SVGID_1_"  overflow="visible"/>
	</clipPath>
	<circle clip-path="url(#SVGID_2_)" fill="#E6AF2E" cx="256" cy="256" r="252"/>
</g>
<g>
	<defs>
		<rect id="SVGID_3_" width="512" height="512"/>
	</defs>
	<clipPath id="SVGID_4_">
		<use xlink:href="#SVGID_3_"  overflow="visible"/>
	</clipPath>
	<path clip-path="url(#SVGID_4_)" fill="#FFFFFF" d="M202.4,190.8c11.2,0,20,8.8,20,20c0,11.2-8.8,20-20,20s-20-8.8-20-20
		C182.4,199.6,191.2,190.8,202.4,190.8z M309.6,190.8c11.2,0,20,8.8,20,20c0,11.2-8.8,20-20,20s-20-8.8-20-20
		C289.6,199.6,298.8,190.8,309.6,190.8z M256,138c-65.2,0-118,52.8-118,118s52.8,118,118,118s118-52.8,118-118S321.2,138,256,138z"
		/>
	<path clip-path="url(#SVGID_4_)" fill="#E6AF2E" d="M319.5,309h-127c-4.7,0-8.5-3.8-8.5-8.5l0,0c0-4.7,3.8-8.5,8.5-8.5h127
		c4.7,0,8.5,3.8,8.5,8.5l0,0C328,305.2,324.2,309,319.5,309z"/>
</g>
</svg>
