<?xml version="1.0" encoding="utf-8"?>
<!-- Generator: Adobe Illustrator 18.1.0, SVG Export Plug-In . SVG Version: 6.00 Build 0)  -->
<svg version="1.1" id="Layer_1" xmlns="http://www.w3.org/2000/svg" xmlns:xlink="http://www.w3.org/1999/xlink" x="0px" y="0px"
	 viewBox="0 0 100 100" enable-background="new 0 0 100 100" xml:space="preserve">
<g>
	<path fill="#8EC995" d="M57.7,76.6H37.2c-1.7,4.2-4.2,7.1-8,10c-0.3,2.6-1.2,3.7-3.1,5.2v8.2h42.7v-8.2c-1.8-1.5-2.8-2.6-3.1-5.2
		C61.9,83.7,59.4,80.6,57.7,76.6z"/>
	<path fill="#8EC995" d="M19.6,57.5l-3.7,5.9l8,5.1l7.9-12.5c3.4,5.5,6.6,8.9,7.7,10l0,0v3.4h15.6v-3.4h-0.2c1.1-1.1,4.2-4.3,7.7-10
		l7.9,12.5l8-5.1l-3.7-5.9c13.7-8.8,18.8-21.3,15.9-38.7l-0.6-4H75c0.2-1.5,0.2-3.2,0.3-4.8H19.3c0,1.7,0.2,3.2,0.3,4.8H4.4l-0.6,4
		C0.8,36.4,5.9,48.7,19.6,57.5z M74.2,24.5h8c1.1,12.8-3.7,20.8-15.9,27.1l-1.2,0.6C68.6,45.5,72.2,36.4,74.2,24.5z M12.7,24.5h8
		c1.8,11.9,5.5,21.1,9.1,27.7l-1.2-0.6C16.4,45.3,11.6,37.3,12.7,24.5z"/>
</g>
<g>
	<circle fill="#8EC995" stroke="#FFFFFF" stroke-width="2" stroke-miterlimit="10" cx="79" cy="15.1" r="13.6"/>
</g>
<path fill="#FFFFFF" d="M87.4,11.6c0.8-0.8,0.8-2,0-2.8s-2-0.8-2.8,0l-8,8.2l-3.5-3.5c-0.8-0.8-2-0.8-2.8,0c-0.8,0.8-0.8,2,0,2.8
	l0,0l5.4,5.4c0.5,0.5,1.4,0.5,1.8,0L87.4,11.6L87.4,11.6z"/>
</svg>
