<?xml version="1.0" encoding="utf-8"?>
<!-- Generator: Adobe Illustrator 18.1.0, SVG Export Plug-In . SVG Version: 6.00 Build 0)  -->
<svg version="1.1" id="Layer_1" xmlns="http://www.w3.org/2000/svg" xmlns:xlink="http://www.w3.org/1999/xlink" x="0px" y="0px"
	 viewBox="0 0 61 64.9" enable-background="new 0 0 61 64.9" xml:space="preserve">
<g>
	<path fill="#8EC995" d="M35.5,49.7H22.2c-1.1,2.7-2.7,4.6-5.2,6.5c-0.2,1.7-0.8,2.4-2,3.4v5.3h27.7v-5.3c-1.2-1-1.8-1.7-2-3.4
		C38.2,54.3,36.6,52.3,35.5,49.7z"/>
	<path fill="#8EC995" d="M10.8,37.3l-2.4,3.8l5.2,3.3l5.1-8.1c2.2,3.6,4.3,5.8,5,6.5h0V45h10.1v-2.2h-0.1c0.7-0.7,2.7-2.8,5-6.5
		l5.1,8.1l5.2-3.3l-2.4-3.8c8.9-5.7,12.2-13.8,10.3-25.1l-0.4-2.6h-9.8c0.1-1,0.1-2.1,0.2-3.1H10.6c0,1.1,0.1,2.1,0.2,3.1H0.9
		l-0.4,2.6C-1.4,23.6,1.9,31.6,10.8,37.3z M46.2,15.9h5.2c0.7,8.3-2.4,13.5-10.3,17.6l-0.8,0.4C42.6,29.5,44.9,23.6,46.2,15.9z
		 M6.3,15.9h5.2c1.2,7.7,3.6,13.7,5.9,18l-0.8-0.4C8.7,29.4,5.6,24.2,6.3,15.9z"/>
</g>
<g>
	<circle fill="#8EC995" stroke="#FFFFFF" stroke-width="1.5" stroke-miterlimit="10" cx="49.3" cy="9.8" r="8.8"/>
</g>
<g>
	<path fill="#FFFFFF" d="M54.2,8.6h-3.6V5c0-0.7-0.5-1.2-1.2-1.2S48.1,4.3,48.1,5l0,3.6l-3.6,0c-0.7,0-1.2,0.5-1.2,1.2
		c0,0.7,0.5,1.2,1.2,1.2l3.6,0l0,3.6c0,0.7,0.5,1.2,1.2,1.2c0.7,0,1.2-0.5,1.2-1.2v0h0l0-3.6h3.6c0.7,0,1.2-0.5,1.2-1.2
		C55.4,9.1,54.8,8.6,54.2,8.6z"/>
</g>
</svg>
